<?xml version="1.0" encoding="UTF-8"?>
<svg id="Camada_1" xmlns="http://www.w3.org/2000/svg" version="1.1" viewBox="0 0 156 50">
  <!-- Generator: Adobe Illustrator 29.4.0, SVG Export Plug-In . SVG Version: 2.1.0 Build 73)  -->
  <defs>
    <style>
      .st0 {
        fill: #efefef;
      }

      .st1 {
        fill: #AECC00;
      }
    </style>
  </defs>
  <g>
    <g>
      <path class="st0" d="M.95,8.97h3.9v7.11h13.96v-7.11h3.9v18.12h-3.9v-7.11H4.84v7.11H.95V8.97Z"/>
      <path class="st0" d="M37.52,8.98c1.45,0,2.88-.01,4.33,0,3.89,6.05,7.82,12.08,11.72,18.12h-4.66c-3.08-4.75-6.15-9.5-9.23-14.24-3.08,4.74-6.15,9.49-9.22,14.24h-4.67c3.91-6.04,7.83-12.08,11.73-18.13h0Z"/>
      <path class="st0" d="M56.72,8.97c5.16.01,10.31-.01,15.47,0,2.63-.04,5.1,2.02,5.52,4.61.28,1.92.2,4.08-1.08,5.66-.65.9-1.66,1.45-2.6,1.97,1.28,1.94,2.53,3.89,3.79,5.84h-4.67c-1.2-1.88-2.41-3.74-3.63-5.61h-8.89v5.65h-3.9v-9.57c5.17-.02,10.33.05,15.49-.03,2.41-.03,2.39-4.61-.03-4.61-5.15-.05-10.3,0-15.46-.02v-3.92.03h-.01Z"/>
      <path class="st0" d="M80.98,8.97c5.81.01,11.62,0,17.44,0,2.48-.06,4.83,1.78,5.4,4.19.35,1.95.1,3.94.18,5.92.06,2.18.16,4.7-1.58,6.33-1.5,1.69-3.89,1.8-5.98,1.7-5.15-.03-10.29-.01-15.45-.02v-3.91c5.79-.01,11.58.02,17.36-.01.96.07,1.82-.77,1.73-1.74.02-2.36.06-4.72-.02-7.08-.02-.84-.81-1.5-1.63-1.46-5.81-.05-11.62,0-17.43-.02v-3.92h-.02v.02Z"/>
      <path class="st0" d="M130.48,8.97h3.9c2.62,4.53,5.23,9.08,7.85,13.6,2.61-4.53,5.23-9.07,7.85-13.6h3.9v18.12h-3.9v-10.28c-1.99,3.43-3.96,6.86-5.94,10.28h-3.82c-1.98-3.43-3.94-6.85-5.93-10.27,0,3.42,0,6.84,0,10.27h-3.9V8.96h-.01Z"/>
      <path class="st0" d="M107.2,16.08h20.09v3.91h-20.09v-3.91Z"/>
    </g>
    <path class="st1" d="M107.2,8.9h20.2c.05,1.4.05,2.79.04,4.2-5.12-.02-10.22-.04-15.34-.05,0,.33-.02.99-.02,1.33h-4.88v-5.48Z"/>
    <path class="st1" d="M117.58,21.62h4.88v1.37h4.92c.07,1.43.07,2.86.07,4.29-6.75-.02-13.5-.13-20.25-.18v-4.1h10.36v-1.37h.02Z"/>
  </g>
  <g>
    <path class="st1" d="M34.54,34.13c.41,0,.83.02,1.26.03v5.84c-.39,0-.77.03-1.17.05-1-1.25-1.96-2.52-2.94-3.78,0,1.26,0,2.51-.01,3.77-.31,0-.94-.02-1.26-.02,0-1.99,0-3.97.01-5.96.31.06.93.18,1.26.24,1.04,1.14,1.87,2.42,2.84,3.61,0-1.26,0-2.51.02-3.77h0Z"/>
    <path class="st1" d="M2.11,34.76c1.3-1.01,3.06-.61,4.31.26-.19.22-.56.66-.74.88-.71-.33-1.52-.92-2.32-.49-1.25.46-1.42,2.37-.3,3.08.82.65,1.82.09,2.64-.25.18.2.54.61.72.81-1.1.76-2.53,1.35-3.81.65-1.92-.82-2.26-3.79-.49-4.94,0,0,0,0-.01,0Z"/>
    <path class="st1" d="M16.92,34.46c2.04-1.12,5.04.64,4.54,3.07-.31,2.37-3.57,3.3-5.25,1.71-1.54-1.27-1.16-4.01.7-4.77h.01ZM17.35,35.62c-.99.63-.98,2.25,0,2.89,1.09.87,2.88-.06,2.79-1.45.08-1.4-1.71-2.31-2.79-1.45h0Z"/>
    <path class="st1" d="M46.66,34.44c1.17-.6,2.46-.14,3.61.25-.12.27-.37.81-.49,1.1-.94-.29-2.12-.92-2.88.07,1.19.78,3.73.82,3.35,2.79-.74,2.02-3.46,1.44-4.89.53.13-.26.4-.79.54-1.06,1,.55,2.4,1.29,3.28.1-.93-.47-1.95-.76-2.86-1.25-.92-.62-.62-2.16.37-2.54h-.03Z"/>
    <path class="st1" d="M60.11,34.15h4.84v1.12h-1.76v4.74h-1.32c.02-1.59.02-3.18-.03-4.76-.58,0-1.16.02-1.73.03v-1.13h0,0Z"/>
    <path class="st1" d="M74.7,34.15c1.4.07,2.95-.27,4.22.46,1.21.94.73,2.76-.3,3.65.38.58.77,1.17,1.17,1.76h-1.5c-.3-.53-.6-1.08-.9-1.61-.45,0-.89-.02-1.35-.02,0,.54-.02,1.09-.02,1.63h-1.31v-5.87h-.01ZM76.03,35.15c0,.72-.01,1.44-.02,2.16.81-.11,2.35.21,2.35-1.02.12-1.31-1.51-1.05-2.33-1.15h0Z"/>
    <path class="st1" d="M89.34,34.15h1.32c0,1.24-.08,2.47.05,3.71.08,1.28,2.28,1.38,2.46.1.17-1.27.05-2.54.07-3.81h1.32c-.04,1.42.13,2.86-.13,4.27-.64,2.23-4.52,2.13-4.99-.16-.21-1.36-.09-2.74-.1-4.1h0Z"/>
    <path class="st1" d="M104.24,34.15h4.84v1.12h-1.75v4.75h-1.32v-4.74h-1.76v-1.12h-.02,0Z"/>
    <path class="st1" d="M119.9,34.46c2.03-1.12,5.02.62,4.54,3.05-.29,2.39-3.59,3.33-5.26,1.72-1.53-1.28-1.14-4,.71-4.75h0v-.02ZM120.31,35.63c-1.1.71-.9,2.53.28,3.05,1.12.6,2.61-.35,2.53-1.62.07-1.4-1.73-2.3-2.81-1.43Z"/>
    <path class="st1" d="M133.54,34.15c1.4.07,2.94-.27,4.21.46,1.22.94.74,2.76-.29,3.66.38.58.77,1.17,1.17,1.76h-1.5c-.3-.53-.6-1.07-.9-1.6-.44,0-.89-.02-1.34-.03,0,.54-.02,1.09-.02,1.63h-1.31v-5.87h-.02ZM134.87,35.15c0,.72-.02,1.44-.02,2.16.82-.11,2.37.21,2.35-1.03.1-1.3-1.51-1.03-2.33-1.14h0Z"/>
    <path class="st1" d="M151.49,34.13c-.46,0-.92.03-1.39.05-.8,1.98-1.71,3.91-2.5,5.9h.02c.26.05.49.04.7,0h.63l.33-.74c.08-.14.16-.3.21-.48.85-.02,1.72-.02,2.58-.03.17.39.35.79.52,1.2.34,0,1.04,0,1.38,0-.83-1.96-1.66-3.92-2.49-5.87h0v-.02ZM149.86,37.76c.31-.74.61-1.5.92-2.24l.91,2.24h-1.84,0Z"/>
  </g>
</svg>